<svg width="500" height="206" viewBox="0 0 500 206" fill="none" xmlns="http://www.w3.org/2000/svg">
<g clip-path="url(#clip0_5_16)">
<path d="M106.43 65.2598L61.78 139.26L17.12 65.2598L0 75.5998L50.09 158.63L60.25 175.47H60.26L61.07 176.82L61.78 178L62.49 176.82L64.73 173.1L67.34 168.78L123.57 75.5898L106.43 65.2598Z" fill="white"/>
<path d="M499.95 70.2403H479.94V142.82L398.9 61.7803L398.95 206.33L418.96 172.13V110.14L500 190.79L499.95 70.2403Z" fill="white"/>
<path d="M224.85 70.6601V70.6201H149.41V80.8201H149.31V172.54L169.33 206.1V90.6301H214.48V109.74H234.49V70.6601H224.85Z" fill="white"/>
<path d="M367.76 70.3399H286.55V-0.330078H266.55V171.53L367.82 171.59L367.76 70.3399ZM286.55 151.51V90.3499H347.8V151.51H286.55Z" fill="white"/>
</g>
<defs>
<clipPath id="clip0_5_16">
<rect width="500" height="206" fill="white"/>
</clipPath>
</defs>
</svg>
